<mxfile host="app.diagrams.net" modified="2022-02-09T08:03:14.550Z" agent="5.0 (Windows NT 6.1; Win64; x64) AppleWebKit/537.36 (KHTML, like Gecko) Chrome/97.0.4692.99 Safari/537.36" etag="x-NImPF11E2hJ31siFi0" version="16.5.3" type="github">
  <diagram id="k7d90FoWIgRvxOmlKd5m" name="Page-1">
    <mxGraphModel dx="1422" dy="794" grid="1" gridSize="10" guides="1" tooltips="1" connect="1" arrows="1" fold="1" page="1" pageScale="1" pageWidth="827" pageHeight="1169" math="0" shadow="0">
      <root>
        <mxCell id="0" />
        <mxCell id="1" parent="0" />
        <mxCell id="7cub_eCkVqfX928UKXEj-3" value="" style="group;verticalAlign=middle;" parent="1" vertex="1" connectable="0">
          <mxGeometry x="40" y="80" width="140" height="140" as="geometry" />
        </mxCell>
        <mxCell id="7cub_eCkVqfX928UKXEj-1" value="" style="whiteSpace=wrap;html=1;aspect=fixed;" parent="7cub_eCkVqfX928UKXEj-3" vertex="1">
          <mxGeometry width="140" height="140" as="geometry" />
        </mxCell>
        <mxCell id="7cub_eCkVqfX928UKXEj-2" value="" style="rounded=0;whiteSpace=wrap;html=1;align=center;" parent="7cub_eCkVqfX928UKXEj-3" vertex="1">
          <mxGeometry x="43.75" y="55" width="52.5" height="30" as="geometry" />
        </mxCell>
        <mxCell id="-8SoeZNI6l04YqkJUM7f-1" value="开发人员产生" style="text;html=1;strokeColor=none;fillColor=none;align=center;verticalAlign=middle;whiteSpace=wrap;rounded=0;fontSize=18;" vertex="1" parent="7cub_eCkVqfX928UKXEj-3">
          <mxGeometry x="10" y="10" width="120" height="30" as="geometry" />
        </mxCell>
        <mxCell id="-8SoeZNI6l04YqkJUM7f-2" value="在开发过程中" style="text;html=1;strokeColor=none;fillColor=none;align=center;verticalAlign=middle;whiteSpace=wrap;rounded=0;fontSize=18;" vertex="1" parent="7cub_eCkVqfX928UKXEj-3">
          <mxGeometry x="10" y="100" width="120" height="30" as="geometry" />
        </mxCell>
        <mxCell id="-8SoeZNI6l04YqkJUM7f-3" value="" style="group;verticalAlign=middle;" vertex="1" connectable="0" parent="1">
          <mxGeometry x="40" y="80" width="140" height="140" as="geometry" />
        </mxCell>
        <mxCell id="-8SoeZNI6l04YqkJUM7f-4" value="" style="whiteSpace=wrap;html=1;aspect=fixed;" vertex="1" parent="-8SoeZNI6l04YqkJUM7f-3">
          <mxGeometry width="140" height="140" as="geometry" />
        </mxCell>
        <mxCell id="-8SoeZNI6l04YqkJUM7f-5" value="&lt;font style=&quot;font-size: 18px&quot;&gt;错误&lt;/font&gt;" style="rounded=0;whiteSpace=wrap;html=1;align=center;" vertex="1" parent="-8SoeZNI6l04YqkJUM7f-3">
          <mxGeometry x="36.88" y="55" width="66.25" height="30" as="geometry" />
        </mxCell>
        <mxCell id="-8SoeZNI6l04YqkJUM7f-6" value="开发人员产生" style="text;html=1;strokeColor=none;fillColor=none;align=center;verticalAlign=middle;whiteSpace=wrap;rounded=0;fontSize=18;" vertex="1" parent="-8SoeZNI6l04YqkJUM7f-3">
          <mxGeometry x="10" y="10" width="120" height="30" as="geometry" />
        </mxCell>
        <mxCell id="-8SoeZNI6l04YqkJUM7f-7" value="在开发过程中" style="text;html=1;strokeColor=none;fillColor=none;align=center;verticalAlign=middle;whiteSpace=wrap;rounded=0;fontSize=18;" vertex="1" parent="-8SoeZNI6l04YqkJUM7f-3">
          <mxGeometry x="10" y="100" width="120" height="30" as="geometry" />
        </mxCell>
        <mxCell id="-8SoeZNI6l04YqkJUM7f-23" value="" style="group;verticalAlign=middle;" vertex="1" connectable="0" parent="1">
          <mxGeometry x="40" y="80" width="140" height="140" as="geometry" />
        </mxCell>
        <mxCell id="-8SoeZNI6l04YqkJUM7f-24" value="" style="whiteSpace=wrap;html=1;aspect=fixed;" vertex="1" parent="-8SoeZNI6l04YqkJUM7f-23">
          <mxGeometry width="140" height="140" as="geometry" />
        </mxCell>
        <mxCell id="-8SoeZNI6l04YqkJUM7f-25" value="" style="rounded=0;whiteSpace=wrap;html=1;align=center;" vertex="1" parent="-8SoeZNI6l04YqkJUM7f-23">
          <mxGeometry x="43.75" y="55" width="52.5" height="30" as="geometry" />
        </mxCell>
        <mxCell id="-8SoeZNI6l04YqkJUM7f-26" value="开发人员产生" style="text;html=1;strokeColor=none;fillColor=none;align=center;verticalAlign=middle;whiteSpace=wrap;rounded=0;fontSize=18;" vertex="1" parent="-8SoeZNI6l04YqkJUM7f-23">
          <mxGeometry x="10" y="10" width="120" height="30" as="geometry" />
        </mxCell>
        <mxCell id="-8SoeZNI6l04YqkJUM7f-27" value="在开发过程中" style="text;html=1;strokeColor=none;fillColor=none;align=center;verticalAlign=middle;whiteSpace=wrap;rounded=0;fontSize=18;" vertex="1" parent="-8SoeZNI6l04YqkJUM7f-23">
          <mxGeometry x="10" y="100" width="120" height="30" as="geometry" />
        </mxCell>
        <mxCell id="-8SoeZNI6l04YqkJUM7f-28" value="" style="group;verticalAlign=middle;" vertex="1" connectable="0" parent="1">
          <mxGeometry x="40" y="80" width="140" height="140" as="geometry" />
        </mxCell>
        <mxCell id="-8SoeZNI6l04YqkJUM7f-29" value="" style="whiteSpace=wrap;html=1;aspect=fixed;" vertex="1" parent="-8SoeZNI6l04YqkJUM7f-28">
          <mxGeometry width="140" height="140" as="geometry" />
        </mxCell>
        <mxCell id="-8SoeZNI6l04YqkJUM7f-30" value="&lt;font style=&quot;font-size: 18px&quot;&gt;错误&lt;/font&gt;" style="rounded=0;whiteSpace=wrap;html=1;align=center;" vertex="1" parent="-8SoeZNI6l04YqkJUM7f-28">
          <mxGeometry x="36.88" y="55" width="66.25" height="30" as="geometry" />
        </mxCell>
        <mxCell id="-8SoeZNI6l04YqkJUM7f-31" value="开发人员产生" style="text;html=1;strokeColor=none;fillColor=none;align=center;verticalAlign=middle;whiteSpace=wrap;rounded=0;fontSize=18;" vertex="1" parent="-8SoeZNI6l04YqkJUM7f-28">
          <mxGeometry x="10" y="10" width="120" height="30" as="geometry" />
        </mxCell>
        <mxCell id="-8SoeZNI6l04YqkJUM7f-32" value="在开发过程中" style="text;html=1;strokeColor=none;fillColor=none;align=center;verticalAlign=middle;whiteSpace=wrap;rounded=0;fontSize=18;" vertex="1" parent="-8SoeZNI6l04YqkJUM7f-28">
          <mxGeometry x="10" y="100" width="120" height="30" as="geometry" />
        </mxCell>
        <mxCell id="-8SoeZNI6l04YqkJUM7f-33" value="" style="group;verticalAlign=middle;" vertex="1" connectable="0" parent="1">
          <mxGeometry x="580" y="80" width="140" height="140" as="geometry" />
        </mxCell>
        <mxCell id="-8SoeZNI6l04YqkJUM7f-34" value="" style="whiteSpace=wrap;html=1;aspect=fixed;" vertex="1" parent="-8SoeZNI6l04YqkJUM7f-33">
          <mxGeometry width="140" height="140" as="geometry" />
        </mxCell>
        <mxCell id="-8SoeZNI6l04YqkJUM7f-35" value="&lt;font style=&quot;font-size: 18px&quot;&gt;失效&lt;/font&gt;" style="rounded=0;whiteSpace=wrap;html=1;align=center;" vertex="1" parent="-8SoeZNI6l04YqkJUM7f-33">
          <mxGeometry x="43.75" y="55" width="52.5" height="30" as="geometry" />
        </mxCell>
        <mxCell id="-8SoeZNI6l04YqkJUM7f-36" value="用户经历的" style="text;html=1;strokeColor=none;fillColor=none;align=center;verticalAlign=middle;whiteSpace=wrap;rounded=0;fontSize=18;" vertex="1" parent="-8SoeZNI6l04YqkJUM7f-33">
          <mxGeometry x="10" y="10" width="120" height="30" as="geometry" />
        </mxCell>
        <mxCell id="-8SoeZNI6l04YqkJUM7f-37" value="在运行时" style="text;html=1;strokeColor=none;fillColor=none;align=center;verticalAlign=middle;whiteSpace=wrap;rounded=0;fontSize=18;" vertex="1" parent="-8SoeZNI6l04YqkJUM7f-33">
          <mxGeometry x="10" y="100" width="120" height="30" as="geometry" />
        </mxCell>
        <mxCell id="-8SoeZNI6l04YqkJUM7f-38" value="" style="group;verticalAlign=middle;" vertex="1" connectable="0" parent="1">
          <mxGeometry x="400" y="80" width="140" height="140" as="geometry" />
        </mxCell>
        <mxCell id="-8SoeZNI6l04YqkJUM7f-39" value="" style="whiteSpace=wrap;html=1;aspect=fixed;" vertex="1" parent="-8SoeZNI6l04YqkJUM7f-38">
          <mxGeometry width="140" height="140" as="geometry" />
        </mxCell>
        <mxCell id="-8SoeZNI6l04YqkJUM7f-40" value="&lt;span style=&quot;font-size: 18px&quot;&gt;故障&lt;/span&gt;" style="rounded=0;whiteSpace=wrap;html=1;align=center;" vertex="1" parent="-8SoeZNI6l04YqkJUM7f-38">
          <mxGeometry x="36.88" y="55" width="66.25" height="30" as="geometry" />
        </mxCell>
        <mxCell id="-8SoeZNI6l04YqkJUM7f-41" value="引起" style="text;html=1;strokeColor=none;fillColor=none;align=center;verticalAlign=middle;whiteSpace=wrap;rounded=0;fontSize=18;" vertex="1" parent="-8SoeZNI6l04YqkJUM7f-38">
          <mxGeometry x="10" y="10" width="120" height="30" as="geometry" />
        </mxCell>
        <mxCell id="-8SoeZNI6l04YqkJUM7f-42" value="在运行时" style="text;html=1;strokeColor=none;fillColor=none;align=center;verticalAlign=middle;whiteSpace=wrap;rounded=0;fontSize=18;" vertex="1" parent="-8SoeZNI6l04YqkJUM7f-38">
          <mxGeometry x="10" y="100" width="120" height="30" as="geometry" />
        </mxCell>
        <mxCell id="-8SoeZNI6l04YqkJUM7f-43" value="" style="group;verticalAlign=middle;" vertex="1" connectable="0" parent="1">
          <mxGeometry x="220" y="80" width="140" height="140" as="geometry" />
        </mxCell>
        <mxCell id="-8SoeZNI6l04YqkJUM7f-44" value="" style="whiteSpace=wrap;html=1;aspect=fixed;" vertex="1" parent="-8SoeZNI6l04YqkJUM7f-43">
          <mxGeometry width="140" height="140" as="geometry" />
        </mxCell>
        <mxCell id="-8SoeZNI6l04YqkJUM7f-45" value="" style="rounded=0;whiteSpace=wrap;html=1;align=center;" vertex="1" parent="-8SoeZNI6l04YqkJUM7f-43">
          <mxGeometry x="43.75" y="55" width="52.5" height="30" as="geometry" />
        </mxCell>
        <mxCell id="-8SoeZNI6l04YqkJUM7f-46" value="开发人员产生" style="text;html=1;strokeColor=none;fillColor=none;align=center;verticalAlign=middle;whiteSpace=wrap;rounded=0;fontSize=18;" vertex="1" parent="-8SoeZNI6l04YqkJUM7f-43">
          <mxGeometry x="10" y="10" width="120" height="30" as="geometry" />
        </mxCell>
        <mxCell id="-8SoeZNI6l04YqkJUM7f-47" value="在开发过程中" style="text;html=1;strokeColor=none;fillColor=none;align=center;verticalAlign=middle;whiteSpace=wrap;rounded=0;fontSize=18;" vertex="1" parent="-8SoeZNI6l04YqkJUM7f-43">
          <mxGeometry x="10" y="100" width="120" height="30" as="geometry" />
        </mxCell>
        <mxCell id="-8SoeZNI6l04YqkJUM7f-48" value="" style="group;verticalAlign=middle;" vertex="1" connectable="0" parent="1">
          <mxGeometry x="220" y="80" width="140" height="140" as="geometry" />
        </mxCell>
        <mxCell id="-8SoeZNI6l04YqkJUM7f-49" value="" style="whiteSpace=wrap;html=1;aspect=fixed;" vertex="1" parent="-8SoeZNI6l04YqkJUM7f-48">
          <mxGeometry width="140" height="140" as="geometry" />
        </mxCell>
        <mxCell id="-8SoeZNI6l04YqkJUM7f-50" value="&lt;span style=&quot;font-size: 18px&quot;&gt;缺陷&lt;/span&gt;" style="rounded=0;whiteSpace=wrap;html=1;align=center;" vertex="1" parent="-8SoeZNI6l04YqkJUM7f-48">
          <mxGeometry x="36.88" y="55" width="66.25" height="30" as="geometry" />
        </mxCell>
        <mxCell id="-8SoeZNI6l04YqkJUM7f-51" value="存在" style="text;html=1;strokeColor=none;fillColor=none;align=center;verticalAlign=middle;whiteSpace=wrap;rounded=0;fontSize=18;" vertex="1" parent="-8SoeZNI6l04YqkJUM7f-48">
          <mxGeometry x="10" y="10" width="120" height="30" as="geometry" />
        </mxCell>
        <mxCell id="-8SoeZNI6l04YqkJUM7f-52" value="在产品中" style="text;html=1;strokeColor=none;fillColor=none;align=center;verticalAlign=middle;whiteSpace=wrap;rounded=0;fontSize=18;" vertex="1" parent="-8SoeZNI6l04YqkJUM7f-48">
          <mxGeometry x="10" y="100" width="120" height="30" as="geometry" />
        </mxCell>
        <mxCell id="-8SoeZNI6l04YqkJUM7f-53" value="3.软件失效机理" style="text;html=1;strokeColor=none;fillColor=none;align=center;verticalAlign=middle;whiteSpace=wrap;rounded=0;fontSize=18;" vertex="1" parent="1">
          <mxGeometry x="40" y="40" width="130" height="30" as="geometry" />
        </mxCell>
      </root>
    </mxGraphModel>
  </diagram>
</mxfile>
